<svg  viewBox="0 0 23 32" fill="none" xmlns="http://www.w3.org/2000/svg">
<path d="M4.55936 14.332C5.02497 14.2107 5.44306 14.0815 5.86865 13.9857C7.64819 13.5851 8.50521 12.3842 8.82011 10.6655C9.4209 7.38632 10.047 4.1118 10.6635 0.835491C10.687 0.710193 10.7105 0.583836 10.7486 0.462524C10.831 0.199548 10.9853 -0.00763196 11.2845 0.000215788C11.56 0.00743975 11.712 0.216572 11.7691 0.45428C11.9094 1.03854 12.0308 1.62793 12.1407 2.21882C12.6735 5.0832 13.1942 7.94986 13.731 10.8135C14.0808 12.68 15.2254 13.7257 17.0682 14.1167C18.6342 14.4489 20.1812 14.8722 21.7346 15.2628C22.1176 15.3591 22.5036 15.5113 22.5234 15.9772C22.5452 16.4881 22.1329 16.6374 21.7345 16.7399C20.0426 17.1753 18.3521 17.6175 16.6531 18.0235C14.9083 18.4405 14.0254 19.5988 13.7136 21.2977C13.1145 24.5622 12.5095 27.8257 11.8968 31.0876C11.8246 31.4721 11.7892 31.985 11.2797 31.9997C10.7486 32.0149 10.7359 31.5034 10.663 31.1149C10.0416 27.8014 9.42435 24.4873 8.8038 21.1737C8.46188 19.3479 7.34759 18.3137 5.556 17.9148C3.99334 17.5669 2.44496 17.1544 0.891458 16.7657C0.715794 16.7217 0.541622 16.6602 0.377715 16.5834C0.1227 16.4638 -0.00599787 16.2424 0.000214667 15.9663C0.0061068 15.7045 0.158964 15.5084 0.400128 15.4279C0.830838 15.2842 1.26923 15.1613 1.70897 15.0474C2.64286 14.8054 3.57968 14.5748 4.55936 14.332Z" fill="#FF4C43"/>
</svg>